<svg xmlns="http://www.w3.org/2000/svg" viewBox="0 0 1024 1024">
  <defs>
    <linearGradient id="gradient" x1="0%" y1="0%" x2="100%" y2="100%">
      <stop offset="0%" style="stop-color:#fce4ec; stop-opacity:1" />
      <stop offset="30%" style="stop-color:#e8d5f5; stop-opacity:1" />
      <stop offset="60%" style="stop-color:#d0e8ff; stop-opacity:1" />
      <stop offset="100%" style="stop-color:#b2f0ff; stop-opacity:1" />
    </linearGradient>
  </defs>
  <rect width="1024" height="1024" rx="200" fill="url(#gradient)"/>
  <path d="M720 330H304c-11 0-20 9-20 20v340c0 11 9 20 20 20h416c11 0 20-9 20-20V350c0-11-9-20-20-20zm-20 340H324V370h376v300zm-240-60h104v-20H460v20zm0-40h104v-20H460v20zm0-40h104v-20H460v20zM360 410h80v100h-80V410z" fill="#1a3a8f"/>
  <text x="50%" y="82%" text-anchor="middle" font-family="Nunito, sans-serif" font-weight="800" font-size="70" fill="#1a3a8f">Your</text>
  <text x="50%" y="91%" text-anchor="middle" font-family="Nunito, sans-serif" font-weight="900" font-size="90" fill="#1a3a8f">Dictionary</text>
</svg>
